<svg xmlns="http://www.w3.org/2000/svg" viewBox="0 0 128 128"><path style="fill:red" d="M67.178 1046.3c0-.881 1.602-1.251 2.079-.48.288.466-.062.848-.778.848-.715 0-1.301-.165-1.301-.368zm-9.183-1.768c0-.716.376-1.07.835-.786.46.284.835.87.835 1.302 0 .432-.376.785-.835.785s-.835-.585-.835-1.301zm5.844.556c0-.803 2.03-1.776 3.616-1.732.536.015.246.578-.645 1.252-1.84 1.391-2.971 1.574-2.971.48zm11.687-1.632c0-.39 1.491-1.38 3.314-2.203 1.823-.822 3.948-2.194 4.721-3.049 1.701-1.88 2.539-1.979 2.539-.301 0 .688-.482 1.252-1.071 1.252s-2.741 1.127-4.782 2.504c-3.913 2.641-4.721 2.949-4.721 1.797zm4.174-.127c0-.46.585-.835 1.301-.835s1.07.376.786.835c-.284.46-.87.835-1.302.835-.432 0-.785-.376-.785-.835zm6.315.087c-.254-.411.1-.963.785-1.226.758-.29 1.248 0 1.248.747 0 1.35-1.305 1.658-2.033.479zm-26.66-.748c-.225-.363.88-.51 2.455-.326s2.863.481 2.863.66c0 .629-4.914.32-5.318-.334zm12.365-.618c.891-.674 1.966-1.226 2.388-1.226 1.057 0 8.93-5.158 8.93-5.85 0-.308.94-.988 2.088-1.511 1.148-.523 2.087-.774 2.087-.558 0 .713-3.627 4.58-4.296 4.58-.36 0-2.413 1.115-4.563 2.478s-4.202 2.296-4.562 2.073c-.36-.222-.891-.023-1.18.444-.288.467-.972.836-1.518.822-.547-.014-.265-.578.626-1.252zm-15.603-.132c-.804-.21-1.461-.695-1.461-1.077s.751-.499 1.67-.259c.918.24 1.67.769 1.67 1.174s-.095.694-.21.64c-.114-.052-.866-.268-1.67-.478zm10.226-.26c0-.458.375-.834.835-.834s.834.376.834.835c0 .459-.375.835-.834.835s-.835-.376-.835-.835zm23.374.024c0-1.132 1.483-1.835 2.024-.96.259.42-.09.977-.777 1.24-.686.264-1.247.137-1.247-.28zm-21.121-1.142c-.275-.716-1.436-1.015-3.22-.829-2.071.216-2.372.11-1.165-.41 1.558-.672 1.549-.72-.21-1.18-1.24-.325-1.833-.104-1.833.685 0 1.633-4.065 1.171-4.603-.523-.463-1.458-8.753-6.101-8.753-4.902 0 .402 1.477 1.484 3.282 2.405 3.3 1.684 5.048 3.368 3.494 3.368-.459 0-1.067-.375-1.35-.834-.284-.46-1.174-.835-1.98-.835s-2.19-.658-3.081-1.461c-.89-.804-3.027-2.513-4.749-3.8s-3.13-2.733-3.13-3.216c0-.484 1.355.31 3.01 1.763 1.655 1.454 3.251 2.401 3.546 2.106.296-.296-.213-1.053-1.13-1.683-2.355-1.617-4.602-3.896-5.528-5.605-1.36-2.512.736-1.667 2.79 1.125 1.047 1.422 3.594 3.553 5.66 4.735 2.067 1.182 4.265 2.538 4.885 3.012.62.475 1.63.937 2.246 1.028.615.09 2.627.375 4.47.633 3.314.463 6.68 1.924 7.715 3.348.756 1.04 2.534-.24 1.856-1.337-.334-.542-.17-.666.406-.31.69.427.719 1.06.1 2.217-1.009 1.885-2.118 2.089-2.728.5zm-8.122-3.088c-1.965-1.243-2.96-.92-1.18.382.89.651 1.797 1.006 2.014.79.217-.218-.158-.745-.834-1.172zm-8.776 2.48c-.303-.49-1.096-.682-1.762-.427-.666.256-.999.12-.738-.3s-.321-1.017-1.292-1.325c-1.69-.537-4.938-3.272-4.938-4.159 0-.519 3.294 1.314 4.75 2.642.58.531 2.192 1.468 3.58 2.082 1.387.614 2.522 1.4 2.522 1.748 0 .944-1.49.76-2.122-.26zm22.141-1.176c.86-1.037.836-1.271-.132-1.271-.653 0-1.63-.442-2.17-.982-.751-.752-.395-1.337 1.524-2.504 2.871-1.747 3.298-1.838 3.298-.704 0 .45-.939 1.054-2.087 1.343-1.148.288-2.087.858-2.087 1.268 0 1.424 2.011.73 4.337-1.5 1.288-1.233 2.342-1.828 2.342-1.321s-1.033 1.692-2.296 2.634-1.906 1.725-1.43 1.74c.477.013 2.167-1.127 3.757-2.536 1.59-1.409 2.447-2.342 1.905-2.073-1.236.612-2.272-.903-1.11-1.621 1.37-.847 3.301-5.083 3.828-8.396.366-2.302.231-2.901-.545-2.422-.782.484-.901-.149-.492-2.623.296-1.793.542-4.105.547-5.138.005-1.034.41-1.879.9-1.879.512 0 .666.712.362 1.67-.33 1.04-.15 1.67.478 1.67 1.242 0 .506-8.95-.848-10.305-.485-.485-.882-1.682-.882-2.658 0-1.823-2.918-9.584-6.111-16.255-2.334-4.878-7.35-9.996-10.323-10.535-5.949-1.08-12.125 2.86-14.925 9.52-1.766 4.198-1.601 14.225.282 17.234.308.492.625 1.328.706 1.859.08.53 1.406 2.666 2.945 4.745 2.407 3.252 3.149 3.737 5.303 3.474 1.377-.169 2.914-.332 3.414-.363.921-.057 2.847-3.57 2.847-5.192 0-.487-1.117.311-2.481 1.772-2.43 2.6-4.587 2.845-3.654.415.262-.683-.002-1.225-.597-1.225-.587 0-1.754-.622-2.594-1.382-.9-.815-1.526-.989-1.526-.424 0 .526.751 1.426 1.67 2 .918.573 1.669 1.349 1.669 1.724 0 .374-.788.129-1.752-.546-2.08-1.457-4.279-5.403-3.612-6.481.735-1.19 2.008.01 1.478 1.389-.32.834-.081 1.084.737.77.667-.256 1.694.115 2.283.825 1.545 1.862 6.617 1.73 6.569-.17-.02-.804.322-3.202.76-5.33 1.127-5.462-1.816-13.17-5.052-13.233-.371-.007-.443.363-.159.823s.123.834-.358.834-1.115 1.503-1.408 3.34c-.294 1.836-.884 3.339-1.312 3.339-.427 0-.561-.35-.297-.777.264-.428.093-1.017-.382-1.31-.474-.293-.584-.977-.245-1.519.936-1.498 1.024-3.073.172-3.073-.419 0-.761.752-.761 1.67 0 .918-.406 1.67-.902 1.67-1.067 0-.135-5.273 1.008-5.707.407-.154.571-.551.366-.883-.205-.332.468-1.658 1.496-2.947 2.175-2.728 5.927-3.46 8.646-1.687 2.924 1.907 4.055 1.405 1.93-.857-1.588-1.69-2.48-1.98-4.945-1.603-3.861.59-6.57 2.352-8.305 5.402-.76 1.335-1.71 2.43-2.11 2.433-.4.003-.31-.5.202-1.115.511-.617.735-1.315.497-1.553-.578-.579 6.014-6.491 7.337-6.58.572-.038 1.95-.167 3.062-.288 1.88-.203 3.257.74 8.71 5.969 1.379 1.32 4.32 7.046 5.862 11.412.473 1.339.365 1.418-.713.524-.7-.58-1.271-1.621-1.271-2.313 0-1.6-4.905-10.226-5.816-10.226-1.471 0-1.52 2.356-.057 2.739 1.56.408 4.728 6.488 6.294 12.079.29 1.033.864 1.878 1.278 1.878.414 0 .536-.563.272-1.252s-.105-1.252.353-1.252c.761 0 1.814 2.704 2.275 5.843.101.69.477 2.342.836 3.673.467 1.735.381 2.253-.303 1.83-.525-.324-1.192-2.079-1.483-3.9-.291-1.82-.833-3.497-1.204-3.726-1.19-.735-.493 3.285 1.06 6.114 1.831 3.336 1.93 6.555.251 8.233-.688.689-1.252 1.942-1.252 2.784 0 1.121-.448 1.415-1.67 1.095-1.196-.312-1.67-.026-1.67 1.016 0 1.256.188 1.297 1.389.306 1.19-.983 1.326-.968.953.106-.238.689-1.089 1.194-1.889 1.122-.807-.072-2.053.912-2.797 2.21-1.56 2.716-5.392 4.139-10.125 3.759-7.103-.571-16.173-9.979-17.3-17.943-.254-1.79-.17-1.879.59-.62.488.807.656 1.84.375 2.296-.282.455-.208.828.163.829.372 0 1.716 1.853 2.987 4.116 3.568 6.352 7.81 9.273 14.013 9.649 4.912.297 5.214.197 7.956-2.626 1.568-1.615 2.85-3.684 2.85-4.598 0-1.266-.656-.8-2.748 1.95-2.284 3.002-3.294 3.658-5.973 3.88-1.773.146-4.098.047-5.167-.221-2.47-.62-7.416-4.942-10.464-9.146-2.918-4.024-3.118-5.975-.273-2.667 1.148 1.335 2.086 2.696 2.086 3.026 0 1.126 5.553 6.666 6.117 6.102.309-.309.562-.14.562.375 0 1.357 5.622 2.234 6.999 1.092.625-.52 1.81-.686 2.632-.37 1.026.393 1.306.267.891-.404-.714-1.156-3.584-1.308-3.983-.211-.376 1.032-6.443-1.13-8.123-2.894-1.247-1.31-1.196-1.33.749-.298 3.31 1.756 6.666 1.862 8.43.266 1.012-.916 1.587-1.07 1.587-.424 0 .558.376.781.835.498.46-.284.835-.892.835-1.351 0-.46-.376-.603-.835-.319-.899.556-1.165-.644-.328-1.48 1.1-1.1 2.665 1.461 1.841 3.012-1.41 2.658-.078 2.462 1.508-.222.832-1.41 1.996-2.562 2.585-2.562.59 0 1.073-.376 1.073-.835s.4-.835.89-.835c.512 0 .666.712.362 1.67-.292.918-.16 1.67.295 1.67 1.094 0 2.188-4.696 1.944-8.348-.258-3.871-.794-5.227-1.816-4.595-.5.309-.837-.6-.832-2.243.01-3.47-3.046-12.295-5.178-14.95l-1.61-2.004 1.337 2.922c.735 1.607 1.649 3.497 2.031 4.201.805 1.483 1.472 4.645 2.13 10.1.396 3.282.234 3.925-1.074 4.267-1.564.41-1.867 1.41-1.899 6.267-.01 1.492-.393 2.713-.852 2.713-.46 0-.568-.433-.24-.964.387-.626.227-.735-.458-.312-.801.495-.882.176-.337-1.332.894-2.48.613-14.106-.366-15.085-.41-.41-.57.332-.368 1.707.197 1.337.014 2.644-.406 2.903-.42.26-.768-.541-.773-1.78-.005-1.237-.278-3.659-.607-5.38-.68-3.566-.034-4.154 1.148-1.044.436 1.148 1.366 2.087 2.066 2.087.97 0 1.273.985 1.273 4.124 0 2.269.39 4.366.866 4.66.8.494.583-4.487-.402-9.267-.478-2.318-2.894-7.027-5.206-10.147-1.558-2.103-1.686-2.579-.579-2.154.88.337 1.217.215.885-.322-.777-1.258-7.094-2.093-8.756-1.157-1.116.629-.842.783 1.293.725 3.145-.085 6.585 3.021 9.35 8.441 1.879 3.682 2.026 4.262 1.083 4.262-.347 0-1.146-1.165-1.776-2.59-.854-1.928-1.329-2.3-1.861-1.46-.583.92-.735.896-.826-.124-.062-.69-.06-1.559.005-1.933.064-.374-.675-1.793-1.643-3.152-1.422-1.996-2.297-2.435-4.556-2.283-1.537.104-2.6.505-2.36.893.24.387-.019 1.251-.574 1.92-1.273 1.534-.77 1.532 2.196-.007 2.121-1.1 2.486-1.08 3.65.208 2.298 2.545 3.564 6.325 3.904 11.658.238 3.733.042 5.218-.686 5.218-.772 0-.785.234-.053.966s1.254.728 2.153-.018c.96-.797 1.258-.612 1.56.97.206 1.074.09 2.68-.257 3.566-.555 1.416-.643 1.358-.723-.475-.09-2.052-.111-2.045-1.256.418-.64 1.377-1.5 2.986-1.912 3.575-.852 1.22-8.538 2.399-8.559 1.312-.024-1.32-4.753-6.103-5.429-5.492-.368.333-.44.202-.16-.29s-.07-1.995-.776-3.34c-1.678-3.192-2.027-4.775-2.373-10.763-.54-9.331 4.674-17.574 12.346-19.521 2.892-.734 4.05-.61 7.153.761 2.036.901 3.894 1.446 4.13 1.21.234-.235.27-.52.079-.636-3.995-2.397-6.28-3.13-9.75-3.13-3.652 0-4.591.4-8.011 3.41-2.638 2.322-3.874 2.99-3.874 2.095 0-.723 2.065-2.685 4.588-4.36 4.325-2.872 4.877-3.021 9.603-2.593 4.04.367 5.159.197 5.757-.872.673-1.203.956-1.189 2.992.145 1.237.81 2.451 1.27 2.7 1.023.637-.638 5.247 1.86 5.247 2.843 0 1.175-1.468 1-1.876-.223-.255-.764-.692-.69-1.668.287-1.207 1.207-1.007 1.661 2.284 5.196 2.812 3.019 4.085 5.405 5.773 10.82 1.191 3.822 2.166 7.398 2.166 7.945 0 .548.313.997.695.997.97 0 .918-2.705-.077-3.965-.452-.574-.602-1.044-.333-1.044s-.235-1.69-1.12-3.757c-1.515-3.533-1.464-4.146.315-3.82.705.13.536-.953-.706-4.528-.572-1.646-.562-1.646.74-.049 1.493 1.833 1.73 4.289.489 5.056-.53.327-.41 1.333.33 2.763 1.581 3.06 3.031 8.665 3.165 12.237.061 1.622.451 2.95.867 2.95.882 0 .053-7.615-1.175-10.784-.459-1.185-.956-2.718-1.106-3.407-.149-.689-.531-1.91-.85-2.713-.334-.845-.2-1.461.32-1.461.493 0 .69-.657.438-1.46-1-3.182 2.41 1.944 5.13 7.709 3.81 8.076 2.667 8.67-1.286.668-3.559-7.205-4.422-7.759-1.383-.888 1.071 2.423 1.986 4.594 2.033 4.823.046.23.28.981.52 1.67.239.689.823 2.567 1.298 4.174.653 2.207.791 2.355.566.606-.164-1.273-.001-2.5.363-2.724.999-.618 2.71 8.472 2.796 14.847.041 3.098.357 5.634.701 5.635.345 0 .626.385.626.853 0 .468-.939.68-2.087.472-1.68-.305-2.087-.039-2.087 1.366 0 .96-.958 3-2.13 4.536s-1.828 2.786-1.46 2.78c1.163-.024 2.44-1.188 3.02-2.754.318-.863.97-1.26 1.515-.923.882.546-6.019 7.875-10.545 11.2-1.622 1.19-1.628 1.177-.209-.495 1.836-2.162 1.86-2.943.072-2.257-1.525.586-1.078-.613 1.233-3.303.692-.806 1.007-1.718.699-2.026-.308-.308-1.143.164-1.856 1.048-1.445 1.793-1.35 1.4.81-3.354 1.85-4.07 2.348-5.964 2.484-9.437.058-1.492.44-2.713.849-2.713 1.074 0-.016 7.832-1.486 10.675-1.13 2.186-1.115 2.554.164 3.852 1.329 1.35 1.326 1.5-.047 2.52-1.792 1.33-1.871 2.153-.209 2.153.69 0 1.253-.533 1.253-1.183s.47-1.402 1.043-1.67c.828-.386.83-.587.008-.97-.739-.347-.436-1.27 1.06-3.23 1.327-1.741 1.907-3.321 1.582-4.317-.422-1.294-.354-1.35.389-.318.779 1.083.902 1.055.913-.208.007-.804-.362-1.461-.822-1.461s-.834-.34-.834-.757.657-.658 1.46-.537c.804.12.978.055.387-.145-1.518-.516-1.129-11.918.407-11.918.597 0 1.085-.595 1.085-1.322 0-.727-.47-1.16-1.044-.961-.577.2-1.505-.794-2.079-2.226-1.01-2.526-1.025-2.498-.595 1.17.426 3.643.401 3.693-.82 1.669-1.216-2.017-1.247-1.947-.947 2.087.438 5.875.606 6.232 1.375 2.922.42-1.807.523.424.27 5.843-.342 7.332-.683 9.039-2.087 10.435l-1.678 1.67.962-2.504c1.612-4.2 2.352-11.367 1.218-11.802-.545-.21-1.062-2.148-1.148-4.307-.086-2.16-.285-4.49-.442-5.179s-.568-2.473-.914-3.965c-.345-1.492-.937-2.713-1.315-2.713-.378 0-.303 1.1.166 2.446.469 1.345.725 3.505.57 4.8-.209 1.733-.664.736-1.728-3.784-.794-3.376-1.235-6.475-.98-6.887.254-.412.064-.749-.422-.749s-.884-1.293-.884-2.872-.334-3.08-.742-3.332c-.409-.252-.998-1.474-1.309-2.715-.734-2.926-8.035-12.094-10.817-13.583-3.08-1.648-3.61-.497-.592 1.286 1.384.818 2.327 1.794 2.095 2.168-.231.375.165.682.88.682s1.305.282 1.31.626c.004.344 1.224 1.949 2.712 3.565s2.853 3.494 3.032 4.174c.179.68.956 3.507 1.726 6.283.77 2.776 1.262 5.465 1.091 5.976-.17.51.086 1.172.57 1.47.483.3.879.944.879 1.432 0 .56-.463.504-1.253-.152-.688-.571-1.252-1.626-1.252-2.343s-.81-3.019-1.8-5.115c-.989-2.096-2.124-4.563-2.52-5.48-.676-1.562-.654-1.571.338-.137 2.983 4.312 3.104 4.42 2.484 2.223-.324-1.148-1.052-2.838-1.617-3.757-.846-1.373-1.165-1.46-1.801-.493-.932 1.419-.182 3.895 3.37 11.125.39.798.711 2.098.711 2.89 0 .793.941 2.207 2.091 3.143 1.485 1.207 2.244 2.85 2.618 5.666.326 2.451.206 3.965-.312 3.965-.462 0-.837-.657-.834-1.46.017-4.348-.355-6.065-1.575-7.285-.743-.744-1.578-1.126-1.854-.85-.277.277.018.825.655 1.219 1.56.963 1.8 12.233.255 11.924-.574-.115-1.044.167-1.044.626 0 .459.376.835.835.835s.835.787.835 1.75c0 2.37-2.496 10.926-3.581 12.28-.482.6-.53.975-.108.834.76-.253 1.184.352 1.184 1.69 0 .819-6.4 5.454-8.674 6.283-1.34.488-1.42.382-.524-.696zm25.759-21.098c-.132-.803.035-1.899.37-2.434.337-.536.258-1.906-.175-3.045-.433-1.14-.561-2.298-.285-2.574.277-.277.065-.504-.47-.504-1.196 0-1.298 3.041-.126 3.765.467.289.629.88.36 1.316-.269.434-.887.544-1.374.243-.533-.329-.676-.085-.36.613.288.637.757 1.817 1.04 2.62.283.804.683 1.461.888 1.461.205 0 .264-.657.132-1.46zm-19.472-34.87c.506-.466.225-.543-.729-.2-1.153.417-1.432.243-1.08-.673.277-.723-.592-2.3-2.096-3.804-3.24-3.24-4.02-2.65-1.321.999 1.126 1.522 2.311 3.508 2.633 4.414.329.922.846 1.29 1.177.835.325-.447.962-1.153 1.416-1.57zm-1.562-10.51c.22 0 .188-.341-.069-.757s-1.176-.571-2.042-.345-1.827.003-2.135-.496c-.309-.499-1.009-.899-1.555-.889-.547.01-.056.755 1.092 1.655 1.148.9 2.588 1.455 3.2 1.234.61-.222 1.29-.403 1.51-.403zm-11.804 64.28c-.284-.46.258-.836 1.203-.836.945 0 1.719.376 1.719.835 0 .46-.541.835-1.203.835s-1.435-.376-1.719-.835zm26.28-.4c.58-.698 1.573-1.27 2.205-1.27.633 0 1.056-.335.942-.744-.218-.775 3.369-4.265 4.382-4.265 1.03 0-5.375 6.378-7.005 6.974-1.34.49-1.419.385-.524-.694zm-30.487-1.323c-.772-1.249-.52-1.352 4.415-1.805 4.736-.434 5.46-.168 2.505.921-3.914 1.442-6.38 1.757-6.92.884zm-5.185-.808c-1.033-.416-1.878-.955-1.878-1.2 0-.917 3.081-.398 4.64.782 1.892 1.43.34 1.665-2.762.418zm-5.225-2.905c-1.126-1.358-.243-1.641 1.558-.5.688.436.807.919.303 1.23-.456.282-1.294-.047-1.86-.73zm5.426.06c-1.373-.579-3.747-2.107-5.276-3.395-1.67-1.408-2.714-1.874-2.614-1.169.09.646.12 1.877.066 2.737-.083 1.314-.305 1.392-1.39.491-.964-.8-1.037-1.23-.289-1.692.703-.434.303-1.27-1.334-2.787-1.286-1.192-2.068-2.167-1.738-2.167.33 0-.213-1.033-1.207-2.295-1.518-1.93-4.158-7.163-4.158-8.242 0-.173.368-.315.819-.315s1.06.966 1.357 2.147c.297 1.18 1.86 4.092 3.476 6.47 3.635 5.35 3.428 5.12 4.04 4.51.28-.28-.698-2.296-2.172-4.48-3.405-5.046-5.926-11.152-4.605-11.152.372 0 2.387 4.364 2.89 6.261.122.46.932 1.832 1.8 3.05.867 1.22 1.577 2.467 1.577 2.773 0 1.053 2.493 3.048 3.235 2.59.409-.253 1.692.287 2.851 1.199 2.287 1.798 3.932 2.145 3.932.828 0-.932 2.946-.683 3.944.333.356.363-.104.536-1.022.383-.919-.152-1.67.093-1.67.545 0 .877.291.96 4.174 1.2 2.182.136 2.29.248.835.873-1.4.601-1.23.727 1.043.776 1.493.033 2.714.464 2.714.96 0 1.064-5.272.138-5.705-1.003-.153-.403-1.092-.727-2.087-.72-1.333.01-1.51.202-.676.73 1.951 1.237-.192 1.664-2.81.56zm1.662-1.278c.422-.684-1.114-1.62-6.663-4.061-.459-.202.065.612 1.165 1.808s2.295 1.994 2.655 1.771c.361-.223.892-.023 1.18.443.655 1.06 1.027 1.068 1.663.04zm15.28.284c1.477-1.155 2.684-2.661 2.684-3.348 0-.834.512-1.085 1.544-.758 1.197.38 1.741-.124 2.42-2.24.715-2.233.89-2.38.96-.809.046 1.056-.44 2.935-1.082 4.176-1.437 2.779-4.677 5.84-4.677 4.42 0-.602-.423-.75-1.043-.362-2.602 1.625-3.213.805-.805-1.079zm4.381-1.561c1.133-1.545 1.115-1.584-.236-.524-.804.63-1.461 1.538-1.461 2.017s.106.715.236.524.788-1.1 1.461-2.017zm5.458 1.61c-.32-1.278-.184-2.654.312-3.15.485-.485.887-1.84.894-3.01.006-1.17.377-2.692.822-3.381 1.39-2.152.986 3.447-.448 6.196-1.013 1.942-1.056 2.573-.21 3.096.78.482.815.902.13 1.587-.684.684-1.08.33-1.5-1.338zm-14.669.477c0-.46-.483-.835-1.073-.835-1.27 0-1.468-3.281-.209-3.467l1.7-.247c1.887-.273 4.591-2.629 4.591-4 0-1.69 1.055-1.857 3.495-.55 1.251.669 1.561.667 1.145-.01-.612-.99 1.03-6.63 2.332-8.01.505-.535.614-.341.305.542-.264.757-.938 3.696-1.495 6.532-.564 2.862-1.286 4.717-1.624 4.17-.467-.755-.752-.757-1.216-.01-.334.539-1.09.794-1.683.567-.591-.227-1.908.362-2.925 1.31-1.387 1.292-2.01 1.463-2.492.684-.456-.738-.807-.77-1.213-.114-.314.508-.253.924.135.924s.763.751.833 1.67c.069.918-.04 1.67-.24 1.67-.201 0-.366-.376-.366-.836zm7.817-8.532c-.31-.504-.794-.385-1.23.303-1.14 1.8-.857 2.684.5 1.558.684-.568 1.012-1.405.73-1.861zm-6.147 8.021c0-.616 3.575-3.6 4.356-3.636.33-.015.404.485.163 1.112-.437 1.14-4.519 3.42-4.519 2.524zm-7.096-2.829c-.284-.459-.14-.834.32-.834s1.066.375 1.35.834c.284.46.14.835-.32.835s-1.066-.376-1.35-.835zm22.957.1c0-.46.376-1.068.835-1.351.46-.284.835-.14.835.319s-.376 1.066-.835 1.35c-.46.284-.835.14-.835-.319zm-48.418-1.4c0-.716.376-1.07.835-.786.46.284.835.87.835 1.301 0 .432-.376.786-.835.786s-.835-.586-.835-1.302zm5.313-.712c-6.926-9.348-8.552-12.179-6.995-12.179.423 0 1.424 1.41 2.226 3.13.8 1.723 1.666 3.32 1.922 3.549 1.433 1.284 5.154 6.85 4.81 7.194-.224.224-1.107-.538-1.963-1.694zm57.363.83c-.036-.88.16-1.373.438-1.095.278.277.307.997.066 1.6-.266.665-.464.468-.504-.505zm-45.972-1.73c-.568-.683-1.365-1.037-1.772-.785-.407.251-.74-.128-.74-.844 0-1.707.15-1.668 3 .784 1.334 1.148 2.002 2.087 1.485 2.087-.518 0-1.406-.558-1.973-1.242zm43.402.928c0-.173.572-.79 1.271-1.37 1.063-.882 1.185-.83.746.315-.45 1.17-2.017 1.99-2.017 1.055zm-10.552-1.98c1.102-3.897 1.516-10.416.627-9.867-.51.316-.928 1.7-.928 3.078s-.303 2.317-.673 2.088c-1.141-.705-.09-6.36 1.182-6.36.638 0 1.16-.752 1.16-1.67 0-.918.31-1.67.688-1.67.67 0 .538 7.094-.194 10.435-.201.919-.394 2.515-.43 3.548-.035 1.033-.464 1.879-.954 1.879s-.705-.658-.478-1.461zm-51.77-.663c-.272-.708-.308-1.474-.08-1.702.228-.228.615.351.86 1.288.52 1.99-.058 2.296-.78.414zm2.773-.103c-.306-.306-.557-.944-.557-1.419 0-.523.389-.474.988.125.543.544.794 1.182.556 1.42-.237.237-.681.18-.987-.126zm8.395-5.454c-1.25-1.928-2.273-4.12-2.273-4.87s-.262-1.624-.581-1.944c-.32-.319-.67-1.182-.777-1.917-.308-2.095.848-.281 3.01 4.724 1.091 2.526 2.71 5.25 3.597 6.053 1.134 1.027 1.27 1.46.456 1.46-.637 0-2.182-1.577-3.432-3.506zm-11.039 1.002c-.284-.459-.118-.835.368-.835s.884.376.884.835c0 .46-.165.835-.368.835s-.6-.376-.884-.835zm65.531-.368c0-1.466.5-1.682 1.216-.524.265.427.099 1.013-.368 1.301-.466.288-.848-.06-.848-.777zm-68-1.244c-.264-.427-.098-1.013.368-1.301.467-.289.849.06.849.777 0 1.466-.501 1.682-1.217.524zm25.444-1.065c-4.747-1.822-6.7-3.662-9.748-9.186-.995-1.802-2.043-2.865-2.345-2.377-.923 1.493-1.903.985-2.321-1.204-.22-1.148-.076-2.087.32-2.087.395 0 .719.564.719 1.253s.375 1.252.835 1.252c1.058 0 1.066-1.788.02-4.537-.448-1.178-1.394-2.142-2.103-2.142-.985 0-1.156-.54-.726-2.295.31-1.263.88-2.421 1.268-2.574 1.144-.451.807-1.809-.45-1.809-1.209 0-2.153 2.448-2.172 5.635-.007 1.033-.385 1.878-.84 1.878s-.705-.657-.552-1.46c1.334-6.99 1.555-7.52 2.986-7.147.84.22 1.46-.086 1.467-.723.02-1.781 3.743-9.87 4.544-9.87 1.113 0 .874 1.347-.433 2.432-1.066.884-2.71 6.848-2.043 7.407.157.132-.278.596-.966 1.03-.716.453-.834.798-.276.805.562.008.936 1.164.882 2.726-.37 10.69 6.18 20.824 14.435 22.334 1.828.334 3.338.377 3.354.094.071-1.218 3.978-5.214 4.412-4.513.262.425-.457 1.781-1.599 3.012-1.141 1.232-1.779 2.245-1.416 2.252.363.01.097.377-.592.822-1.578 1.02-1.25 1.07-6.66-1.007zm-13.658-22.52c-.232-.574-.421-.104-.421 1.043 0 1.148.19 1.618.421 1.044s.232-1.513 0-2.087zm-13.051 19.053c-1.049-2.76-1.103-4.653-.133-4.653.765 0 1.992 5.909 1.36 6.542-.203.202-.755-.648-1.227-1.89zm41.473.578c-.764-1.362.463-6.9 1.529-6.9.803 0 .926.622.454 2.295-.356 1.263-.498 2.731-.315 3.263.38 1.105-1.123 2.315-1.668 1.342zm28.248-.43c-.492-1.576-1.647-7.553-1.734-8.975-.126-2.08-3-10.182-5.098-14.372-1.085-2.165-3.662-5.84-5.729-8.167s-3.742-4.687-3.724-5.246c.017-.558 1.7.863 3.74 3.159s3.714 3.726 3.724 3.18c.01-.547-.359-1.227-.818-1.51-.46-.284-.835-.916-.835-1.404 0-.56.463-.504 1.252.151.69.572 1.253 1.58 1.253 2.239 0 .66.315 1.004.7.766.385-.238 1.536 1.055 2.558 2.873s2.145 3.305 2.498 3.305c.352 0 1.136.926 1.742 2.059.606 1.132 1.478 1.825 1.94 1.54.46-.285.61-.151.334.297-.277.448.018 1.821.656 3.05.638 1.23.795 2.237.348 2.237s-1.045-.658-1.33-1.461c-.707-1.986-9.606-13.684-10.063-13.227-.2.2.366 1.427 1.259 2.726s2.257 3.406 3.032 4.684c.774 1.277 1.712 2.135 2.082 1.905.371-.229 1.148 1.168 1.726 3.104.578 1.937 1.479 3.797 2.002 4.134.68.439.649.617-.11.626-.987.012-1.824-1.442-3.065-5.324-.277-.87-.684-1.4-.903-1.181-.22.219.366 3.372 1.302 7.006.936 3.634 1.825 8.016 1.977 9.738.273 3.09-.08 4.119-.715 2.087zm-66.706-.371c-.294-.294-.528-1.317-.521-2.273.01-1.434.157-1.52.835-.487.68 1.037.915.912 1.363-.73l.542-1.98 1.098 1.98c1.338 2.413 1.42 3.234.323 3.234-.459 0-.835-.586-.835-1.301s-.381-1.066-.848-.778c-.467.289-.648.849-.404 1.244.545.882-.81 1.833-1.553 1.09zm41.578-2.833c-.308-.5-.162-1.307.326-1.794.625-.626.846-.358.751.907-.154 2.043-.292 2.157-1.077.887zm-36.333-.136c-.35-1.144-.865-3.911-1.01-5.426-.098-1.032-.366-1.878-.596-1.878s-.532-3.006-.672-6.68c-.14-3.672.047-6.676.417-6.674.37.002.744 2.6.83 5.774.14 5.09 1.041 10.137 2.483 13.893.253.66.044 1.2-.464 1.2s-.953-.094-.988-.209zm-4.252-4.591c-.185-.804-.09-2.776.21-4.383.304-1.623.596-2.133.657-1.148.06.976.345 2.948.631 4.383.544 2.717-.884 3.811-1.498 1.148zm6.139-.623c-.524-1.15-.629-2.09-.233-2.09.693 0 1.942 3.424 1.434 3.932-.137.137-.677-.692-1.201-1.842zm-11.239.137c-.93-2.365-.779-3.573.312-2.483.502.502.772 1.61.601 2.462-.3 1.495-.333 1.496-.913.02zm2.84 1.112c-.091-.23-.374-1.92-.629-3.757-.351-2.53-.228-3.112.51-2.402.535.516.818 2.206.629 3.757-.19 1.55-.42 2.631-.51 2.402zm-5.88-2.018c-.036-.88.161-1.373.439-1.095s.307.997.066 1.6c-.267.665-.465.468-.505-.505zm29.63-.654c-.806-1.15-.973-2.03-.448-2.355.461-.285.737-1.43.613-2.546-.166-1.5.14-1.967 1.173-1.797.769.127 1.672-.213 2.007-.755.384-.62.25-.764-.36-.386-1.512.934-2.142-1.886-.928-4.155 1.419-2.65 2.009-2.561 3.505.529 1.845 3.81 1.034 13.302-1.136 13.302-.455 0-.614-.345-.354-.768.52-.84-1.695-3.406-2.94-3.406-1.251 0-.888 1.679.478 2.202.688.265 1.252.816 1.252 1.226 0 1.364-1.558.77-2.862-1.091zm5.176-7.364c-.545-5.666-1.481-6.609-2.683-2.7-.455 1.482-.303 1.768.731 1.371.966-.37 1.307.03 1.307 1.536 0 2.725-.768 3.336-2.286 1.819-1.486-1.487-2.135-1.119-1.4.794.295.77 1.448 1.372 2.63 1.372 2.022 0 2.088-.161 1.7-4.192zm39.982 8.644c-.306-.306-.557-.944-.557-1.419 0-.523.389-.474.988.125.543.544.794 1.182.557 1.42s-.682.18-.988-.126zm-61.506-4c0-1.466.5-1.682 1.216-.524.264.427.099 1.013-.368 1.301s-.848-.06-.848-.777zm-10.852-2.05c0-1.557.347-2.478.823-2.184.877.542.718 3.336-.245 4.299-.318.318-.578-.634-.578-2.115zm13.357 1.113c0-.716.375-1.069.835-.785s.834.87.834 1.301c0 .432-.375.786-.834.786s-.835-.586-.835-1.302zm8.721.538c.26-.42.082-.893-.395-1.052-.476-.159-.842-2.163-.813-4.454.03-2.29.046-5.01.036-6.044-.01-1.033.369-1.878.841-1.878.528 0 .745 2.008.563 5.218-.2 3.534.09 5.823.898 7.095 1.064 1.676 1.042 1.879-.204 1.879-.769 0-1.185-.344-.926-.764zm2.688-.628c-.306-.306-.546-1.15-.532-1.878.021-1.085.184-1.05.912.202.899 1.546.638 2.695-.38 1.676zm-27.425-.711c-.311-.31-.34-1.153-.063-1.872.365-.954.18-1.124-.684-.631-.92.526-.969.442-.215-.374 1.436-1.556 2.545-.726 2.002 1.498-.262 1.069-.73 1.69-1.04 1.379zm6.899-.75c-.036-.88.161-1.373.438-1.095s.307.997.066 1.6c-.266.666-.464.468-.504-.504zm1.11-1.947c-.37-.804-.71-3.082-.755-5.064-.05-2.166-.566-3.908-1.295-4.37-1.007-.636-.964-.77.248-.78 1.312-.011 1.842-.938 1.56-2.726-.055-.344.317-.626.825-.626s.694.599.414 1.33c-.281.731-.739 2.238-1.017 3.349-.419 1.666-.255 1.922.935 1.465 1.272-.488 1.321-.327.42 1.357-.563 1.051-.818 3.174-.567 4.718.505 3.112.25 3.558-.769 1.347zm18.254-1.879c-.123-1.627.655-2.175 1.66-1.17.6.6-.163 2.84-.967 2.84-.312 0-.624-.751-.694-1.67zm-26.138-2.087c-.227-3.499.06-5.724.842-6.542.368-.384.492 1.118.276 3.34-.503 5.188-.914 6.363-1.119 3.202zm4.75.11c-.345-1.316-.43-2.59-.19-2.832.673-.672 1.495 2.016 1.137 3.717-.234 1.113-.483.88-.946-.884zm7.384-.527c-.283-.46-.118-.835.368-.835s.884.376.884.835-.165.835-.368.835-.6-.376-.884-.835zm-15.444-1.62c0-.432.376-1.018.835-1.302.46-.284.835.07.835.786s-.376 1.301-.835 1.301-.835-.353-.835-.785zm5.844-1.768c0-1.405.325-2.353.723-2.107.672.415.305 4.66-.403 4.66-.176 0-.32-1.149-.32-2.553zm8.264-.23c-.378-2.525-.008-4.711 1.186-6.984 1.587-3.023 1.698-3.59.701-3.59-.385 0-1.186 1.034-1.779 2.296-.614 1.308-1.24 1.85-1.453 1.26-.55-1.519 2.666-5.324 3.66-4.33.52.521 1.208.06 1.934-1.295.62-1.158 1.438-2.104 1.82-2.104 1.084 0 .815 1.364-.482 2.44-1.626 1.35-3.905 6.35-4.294 9.423-.3 2.373-1.101 4.16-1.293 2.885zm2.313-1.808c1.466-7.136 8.974-17.108 14.173-18.823 3.526-1.164 3.252-1.845-.445-1.106-1.472.295-3.868 1.8-5.326 3.345-2.691 2.854-3.953 3.484-3.953 1.976 0-.46.564-.835 1.253-.835s1.252-.376 1.252-.835c0-2.267-3.658.396-4.593 3.344-.29.916-1.08 1.665-1.754 1.665-1.626 0-.52-2.023 3.134-5.734 2.223-2.257 2.442-2.75 1.113-2.496-1.728.33-7.09 7.443-9.263 12.285-.691 1.542-1.45 2.61-1.687 2.373-.236-.236.122-1.498.797-2.803s1.312-2.749 1.415-3.208c.104-.46 1.082-1.897 2.174-3.195s1.986-2.834 1.986-3.413c0-.58.845-1.47 1.878-1.978s3.193-1.736 4.8-2.73c2.642-1.632 2.723-1.641.847-.102-3.56 2.922-1.502 2.513 4.158-.826 2.982-1.76 4.86-3.206 4.174-3.213-1.106-.011-1.105-.105.003-.822 1.043-.673.973-.822-.417-.89-1.369-.065-1.253-.265.646-1.106 1.273-.564 2.036-1.304 1.695-1.645s.025-.373.815-.07c.884.34 1.435.151 1.435-.49 0-.766 1.372-.923 5.218-.595 4.016.341 4.785.242 3.339-.43-2.303-1.07-2.423-1.929-.27-1.929.885 0 1.39.353 1.123.785s-.136.57.29.305c1.622-1.001 6.4.67 7.066 2.473.63 1.701.524 1.752-1.878.915-1.937-.676-2.702-.634-3.2.173-.45.727-1.407.855-3.042.406-2.302-.632-7.04-.497-11.285.322-.665.129-.466 1.825.373 3.166.334.535.136 1.182-.441 1.439-.577.257.266.395 1.873.307 1.92-.106 2.85.188 2.713.856-.12.59.69 1.017 1.928 1.017 1.211 0 1.913-.361 1.62-.835-.284-.459.01-.834.655-.834 1.739 0 10.676 3.185 11.985 4.271.662.55 1.134.6 1.134.12 0-.744-3.692-2.812-9.183-5.143-1.777-.754-1.595-.807 1.232-.356 1.825.29 3.824 1.035 4.442 1.653.618.618 1.515 1.124 1.992 1.124s2.72 1.55 4.983 3.445 4.305 3.254 4.538 3.021c.54-.54-7.29-7.288-8.463-7.295-.482-.003-1.315-.444-1.852-.98-1.425-1.426-6.88-3.173-9.953-3.187-1.465-.007-2.896-.388-3.18-.847-1.251-2.025 10.964.928 15.386 3.72 4.685 2.958 14.25 12.097 14.25 13.617 0 .913-.479.704-1.655-.722-.91-1.103-2.04-2.463-2.51-3.02-.472-.559-1.442-.791-2.158-.516-.81.31-2.384-.55-4.168-2.28-1.576-1.528-2.867-2.391-2.867-1.918 0 .474 1.127 1.865 2.505 3.092s2.504 2.63 2.504 3.116c0 .515.723.656 1.728.336 1.32-.418 2.483.246 4.924 2.812 1.758 1.848 3.419 3.137 3.691 2.864.272-.272.087-.986-.411-1.587-.499-.6-.733-1.574-.52-2.164.233-.644.817-.155 1.465 1.224.593 1.263 1.33 2.296 1.638 2.296s1.773 1.69 3.257 3.757 2.436 3.756 2.117 3.756c-.67 0-3.323-2.907-5.137-5.627-.686-1.03-1.589-1.66-2.006-1.403-.417.258.094 1.608 1.135 3 3.804 5.086 4.17 5.7 3.389 5.7-.437 0-1.945-1.597-3.35-3.548-2.835-3.935-5.537-6.876-8.622-9.386l-2.046-1.663 2.021 2.286c1.112 1.258 1.768 2.54 1.458 2.85-.309.309-2.483-1.574-4.83-4.183-6.513-7.241-11.688-10.345-12.728-7.635-.299.779-.085 1.257.527 1.178.567-.073 1.62-.088 2.34-.033 1.773.133 8.373 5.86 8.145 7.066-.1.53.12 1.855.489 2.946 1.152 3.408-1.223 3.89-3.874.788-2.421-2.833-2.476-4.205-.09-2.264 1.267 1.031 1.363.987.846-.391-.44-1.17-.273-1.434.678-1.07 2.233.857 1.266-.643-2.21-3.428-3.524-2.823-4.876-3.33-4.876-1.831 0 .495-.81.314-1.848-.413-1.017-.712-3.73-1.544-6.03-1.849-3.022-.4-3.726-.716-2.535-1.136.906-.32 2.763-.262 4.127.127 1.826.521 2.81.38 3.727-.539.75-.749.87-1.247.303-1.247-.52 0-1.087.43-1.262.955-.24.716-.764.716-2.102 0-.981-.525-3.123-.955-4.76-.955s-2.977-.375-2.977-.834-.364-.835-.809-.835c-.444 0-.569.657-.275 1.46.502 1.379.44 1.381-1.09.043-1.115-.976-2.005-1.176-2.854-.639-.921.583-.954.783-.13.793.607.007 1.623.532 2.259 1.168.983.984.788 1.229-1.32 1.65-2.544.509-7.386 3.513-8.53 5.292-.355.552-1.106 1.505-1.67 2.12-1.138 1.24-3.112 4.548-3.112 5.215 0 .236.376.429.835.429s.835-.472.835-1.05c0-1.911 7.042-8.898 10.334-10.252 4.212-1.734 15.05-1.31 12.163.475-.56.346-2.128.31-3.486-.08-6.037-1.731-13.636 2.446-17.303 9.51-.846 1.63-1.682 2.215-2.76 1.933-1.108-.29-1.772.226-2.347 1.826-.441 1.226-1.162 2.98-1.602 3.899-.63 1.316-.69 1.139-.285-.835zm14.846-22.54c2.59-1.989.742-1.454-2.883.835-1.819 1.148-3.69 2.087-4.158 2.087-.468 0-.851.552-.851 1.227 0 1.195 2.954-.358 7.892-4.15zm9.847-8.483c-.574-.232-1.513-.232-2.087 0-.574.231-.104.42 1.044.42s1.617-.189 1.043-.42zm-22.493 30.62c.52-1.378 1.239-2.505 1.597-2.505.868 0 .827.373-.317 2.883-1.358 2.98-2.428 2.664-1.28-.379zm-18.088-1.253c.265-.688 1.05-1.252 1.746-1.252 1.03 0 1.072.233.226 1.252-.572.689-1.357 1.253-1.746 1.253s-.49-.564-.226-1.253zm6.667-2.06c.513-2.824 1.85-5.867 2.947-6.705.3-.23.61-.793.687-1.252.078-.46 1.065-2.526 2.194-4.592 1.505-2.754 3.675-4.814 8.132-7.722 3.344-2.18 6.619-3.96 7.277-3.953 1.142.012-1.057 1.526-4.645 3.2-.918.427-3.38 2.29-5.472 4.137-3.483 3.076-5.003 5.598-10.668 17.695-.908 1.938-.94 1.88-.452-.808zm1.601 1.7c-.264-.427-.098-1.012.369-1.3.466-.29.848.06.848.776 0 1.467-.501 1.682-1.217.525zm50.957-.594c-.698-1.821.23-2.668 1.216-1.108.987 1.56 1.008 2.48.056 2.48-.41 0-.982-.618-1.272-1.372zm-55.584-.87c0-.429.552-1.508 1.226-2.399 1.03-1.361 1.23-1.403 1.252-.262.015.748-.537 1.827-1.225 2.398-.69.572-1.253.69-1.253.262zm-2.504-.893c0-.46.563-1.302 1.252-1.874.699-.58 1.252-.67 1.252-.204 0 .459-.563 1.302-1.252 1.874-.698.58-1.252.67-1.252.204zm-1.67-2.322c0-1.49 2.271-5.92 3.966-7.736.574-.615 1.043-1.636 1.043-2.27 0-.632.654-1.516 1.454-1.964.8-.447 1.215-1.052.923-1.344-.759-.76-4.613 3.297-4.228 4.451.176.53-.274.963-1.001.963s-1.322.376-1.322.835-.42.835-.934.835c-1.398 0 3.031-5.649 8.565-10.921 4.892-4.661 5.665-5.776 4.007-5.776-.486 0-.616.434-.288.964.344.557.23.739-.267.43-.475-.292-3.036 1.868-5.693 4.802-3.058 3.377-5.272 5.164-6.036 4.87-1.003-.384-.972-.593.186-1.24.765-.43 3.758-3.17 6.65-6.09 3.762-3.8 5.514-5.054 6.159-4.41.644.645 1.289.513 2.266-.464 1.535-1.536 2.08-1.703 2.08-.64 0 .759-4.748 5.502-8.347 8.338-1.148.905-1.822 1.91-1.498 2.236.737.74 8.922-6.331 8.974-7.752.02-.574.919-1.044 1.996-1.044 2.428 0 7.389-2.397 6.83-3.3-.38-.617 3.99-2.115 8.646-2.963 1.095-.2 2.222-.616 2.505-.926.282-.31-.727-.327-2.242-.039-1.913.365-2.58.242-2.182-.401 1.03-1.666 17.453.677 25.807 3.68 1.377.496 4.492 2.198 6.922 3.782 4.06 2.647 6.077 3.125 4.856 1.149-1.188-1.922-15.17-7.821-21.97-9.27-4.037-.859-6.212-1.592-4.835-1.628 1.378-.037 4.947.5 7.931 1.191 2.984.692 5.896 1.31 6.47 1.374.574.064 1.043.43 1.043.812s.47.698 1.044.701c.574.003 2.14.577 3.481 1.277 1.341.699 2.752.958 3.135.574.383-.383-.808-1.36-2.647-2.171-1.839-.812-3.343-1.77-3.343-2.128 0-.359 1.878.246 4.174 1.345 2.296 1.099 4.174 2.38 4.174 2.85 0 .468-.35.635-.777.37-.428-.264-1.013-.098-1.302.369-.288.466-.184.848.232.848 1.055 0 4.351 2.951 4.351 3.896 0 .428-.443 1.222-.986 1.765-.757.757-1.578.549-3.547-.901-5.4-3.976-15.82-7.762-23.286-8.462-2.138-.2-4.267-.599-4.73-.885-.463-.286-.842-.123-.842.364 0 .486-.564.884-1.252.884s-1.253.375-1.253.835c0 .973.147.976 4.726.089 2.811-.545 3.388-.451 3.028.489-.245.639-1.057 1.102-1.804 1.03-4.355-.42-7.62.142-7.62 1.313 0 1.617-1.175 1.601-2.533-.035-.768-.925-1.324-1.033-1.974-.383-.65.65-.566 1.114.297 1.648.919.568.623.881-1.259 1.331-5.487 1.313-18.886 11.798-20.499 16.042-1.147 3.016-.826 4.184.508 1.85 1.449-2.535 1.626-1.734.272 1.237-.713 1.564-1.167 1.86-1.67 1.083-.547-.847-.853-.813-1.479.16-.434.676-1.051.967-1.371.647-.32-.32-.107-1.154.474-1.854s.826-1.273.545-1.273.142-.82.941-1.823c2.364-2.966 11.053-11.744 11.053-11.166 0 .293.47.137 1.043-.346 2.527-2.13 7.483-5.03 8.594-5.03 1.207 0 1.788-1.66.59-1.682-1.833-.035-11.683 5.94-15.16 9.195-4.135 3.87-10.094 12.475-10.094 14.576 0 .652-.375 1.419-.835 1.702-.459.284-.834-.105-.834-.865zm33.392-27.1c.976-.63.746-.812-1.043-.822-1.263-.007-2.296.363-2.296.822 0 1.055 1.706 1.055 3.34 0zm43.201 26.644c-.803-.88-1.272-1.6-1.04-1.6s-1.114-1.385-2.988-3.078c-1.874-1.694-4.975-4.531-6.89-6.307s-5.924-4.708-8.908-6.517c-5.717-3.465-5.957-4.504-.366-1.578 5.98 3.128 7.04 3.85 6.483 4.406-.304.304-.189.552.255.552s1.18-.372 1.634-.826c.545-.546 2.376.333 5.384 2.585 2.507 1.877 4.684 3.754 4.838 4.17.154.418.624.547 1.043.288.42-.26.764.367.764 1.392v1.865l-2.246-2.024a516.376 516.376 0 0 1-5.56-5.121c-1.822-1.703-3.63-2.901-4.019-2.661-.6.37 4.765 6.176 5.707 6.176.18 0 1.692 1.485 3.362 3.302 1.67 1.816 3.255 3.166 3.522 3.001.267-.165.54.604.607 1.707.066 1.104.066 1.976 0 1.938-.067-.039-.778-.79-1.582-1.67zm-39.86-12.46c0-.46.375-.835.834-.835s.835.376.835.835c0 .46-.376.835-.835.835s-.835-.376-.835-.835zm34.964-.719c-1.095-.855-4.596-3.296-7.78-5.426s-5.251-3.862-4.592-3.85c.66.013 3.632 1.673 6.607 3.688s5.755 3.451 6.179 3.19c.423-.263.139-.939-.633-1.503-1.229-.899-1.244-1.087-.126-1.516.704-.27 1.305-.034 1.34.527.095 1.504.534 3.334 1.197 4.983.748 1.86.286 1.84-2.192-.093zm-70.842-2.243c-.024-1.097 5.616-7.01 9.544-10.006 2.755-2.101 3.794-3.754 2.333-3.71-.344.011-2.852 2.074-5.572 4.585s-5.084 4.428-5.251 4.26c-.585-.584 5.888-7.194 7.044-7.194.64 0 .949-.348.686-.775-.264-.426.278-1.014 1.203-1.308.924-.294 1.681-.884 1.681-1.312 0-.428.5-.779 1.11-.779.612 0 2.96-.972 5.218-2.16 2.365-1.245 3.202-1.964 1.974-1.695-4.284.936-9.639 3.843-13.172 7.148-1.99 1.862-3.734 3.386-3.876 3.386-.142 0-.506-.646-.81-1.436-.302-.79-.293-1.178.021-.864.735.734 3.691-.83 3.691-1.953 0-.47-.434-.587-.964-.26-.597.37-.737.23-.368-.367.328-.53 1.325-.964 2.216-.964.891 0 1.62-.342 1.62-.761 0-.636 7.271-3.727 12.732-5.414.803-.248 1.455-1.12 1.448-1.938-.01-1.208-.154-1.264-.766-.297-.415.655-1.63 1.323-2.7 1.484s-4.325 1.404-7.23 2.762-5.16 2.098-5.01 1.646c.152-.452.57-.727.931-.612.361.114.984-.322 1.384-.969.807-1.305 7.955-4.247 10.322-4.248.831 0 1.285-.366 1.01-.811-.276-.446.528-1.069 1.785-1.384 1.453-.365 2.403-.222 2.608.393.177.531.707.966 1.177.966.47 0 .652-.526.405-1.17-.276-.72.251-1.357 1.372-1.658 2.876-.771 3.61-.548 2.062.627-.785.597-1.81 2.088-2.275 3.313-.74 1.948-.64 2.228.802 2.228.907 0 1.649-.383 1.649-.851 0-.468.845-.64 1.878-.383s3.381.085 5.218-.382l3.339-.849-4.383.275c-4.012.252-5.87-.519-3.339-1.384.574-.196.104-.197-1.043-.002-1.519.258-1.84.103-1.18-.57 1.438-1.466 5.648-2 5.13-.651-.254.663.193 1.163 1.103 1.231 1.01.076 1.374-.292 1.07-1.081-.252-.658-.03-1.197.492-1.197s1.166.561 1.429 1.248c.263.686.855 1.014 1.315.73.515-.318.4-.798-.296-1.246-1.887-1.215 7.019.677 14.31 3.04.23.075 1.92.813 3.757 1.64 5.24 2.362 2.02 2.426-3.766.076-6.662-2.707-9.916-3.292-12.512-2.25l-2.087.838 2.087-.043c3.51-.073 10.641 1.67 14.144 3.456 1.826.932 3.921 1.694 4.655 1.694.734 0 1.104.374.821.832-.322.521-1.466.34-3.067-.489-1.835-.949-2.807-1.065-3.459-.414-.651.651-.52.906.464.906.754 0 1.627.416 1.941.924.372.6.023.758-.994.45-7.187-2.176-15.428-3.197-22.797-2.824-7.087.358-7.713.274-6.26-.842 1.531-1.178 1.498-1.22-.658-.847-1.249.216-2.072.072-1.829-.321.243-.393-.332-.714-1.277-.714-.946 0-1.72.398-1.72.884s.386.646.856.355c.47-.29.752-.031.626.577s.268 1.002.876.876c.609-.126.868.156.577.626s-1.07.856-1.731.856c-.662 0-1.203.398-1.203.884s-.38.65-.843.363-1.829.255-3.034 1.203c-1.206.948-2.659 1.724-3.23 1.724-.57 0-1.504.563-2.076 1.252-1.514 1.824-.056 1.491 3.757-.857 3.787-2.333 5.287-2.657 3.756-.813-.571.689-.76 1.252-.417 1.252.342 0 .154.564-.418 1.253-.571.688-1.44 1.252-1.93 1.252-.492 0-.164-.552.727-1.226 1.6-1.21 1.6-1.226.005-1.252-.888-.015-2.505.809-3.592 1.83-1.652 1.552-2.098 1.659-2.722.648-.827-1.338-1.91-.52-8.858 6.678-1.994 2.066-3.634 3.363-3.645 2.882zm22.842-18.496c-1.468-.49-10.685 4.138-9.868 4.955.253.253 2.77-.694 5.593-2.105s4.747-2.693 4.275-2.85zm32.235-.23c0-.395-1.22-1.005-2.713-1.354a731.8 731.8 0 0 1-3.965-.94c-2.593-.628-15.995-.235-17.323.508-.939.525.754.76 5.256.727 8.052-.059 16.038.874 16.703 1.95.545.88 2.042.228 2.042-.89zm6.282 17.256c-4.666-2.813-7.425-4.75-6.767-4.75 1.285 0 9.668 4.494 9.668 5.183 0 .895-.929.757-2.901-.433zm-34.665-.994c.572-.689 1.415-1.252 1.874-1.252.466 0 .375.553-.204 1.252-.572.689-1.415 1.252-1.874 1.252-.466 0-.376-.554.204-1.252zm11.27-.417-3.34-.598 3.549-.119c1.951-.065 3.548.257 3.548.717 0 .459-.094.781-.21.716-.114-.065-1.71-.388-3.547-.716zm-3.757-1.99c0-.176.94-.5 2.087-.72 1.148-.219 2.087-.075 2.087.32 0 .396-.939.72-2.087.72-1.147 0-2.087-.144-2.087-.32zm20.508-2.98c-.887-.322-1.245-.814-.795-1.092.862-.533 3.482.702 2.803 1.32-.217.197-1.12.094-2.008-.228zm-32.93-3.565c.898-1.677 4.036-3.226 5.174-2.553.376.222.889-.386 1.141-1.35.253-.965.509-1.774.57-1.798.061-.025 2.23-.244 4.82-.487 3.02-.284 4.914-.108 5.284.49.393.637-.174.794-1.786.496-3.27-.604-7.79.345-7.79 1.636 0 1.299-2.121 2.355-5.608 2.79-.56.07-.825.629-.59 1.24.238.621-.123 1.114-.816 1.114-.96 0-1.05-.36-.399-1.578zm41.031-4.492c.278-.277.998-.307 1.6-.066.666.267.469.465-.504.505-.88.036-1.373-.161-1.096-.439zm-51.983-7.843c.69-.445 1.816-.81 2.505-.81 1.113 0 1.113.09 0 .81-.689.445-1.816.809-2.505.809-1.113 0-1.113-.09 0-.81zm43.41-1.253c-1.148-.656-3.12-1.206-4.383-1.222-1.263-.016-2.296-.45-2.296-.962 0-.546-.872-.765-2.107-.53-1.159.222-2.268.142-2.465-.177-.198-.319-2.912-.486-6.033-.37-3.283.122-4.977-.06-4.02-.43.909-.351 5.55-.689 10.312-.75 7.215-.092 8.502.079 7.716 1.025-.756.912-.32 1.265 2.21 1.79 1.734.36 3.398.604 3.7.541.3-.063.758.438 1.016 1.112.59 1.537-.934 1.526-3.65-.026zm-39.236.07c0-.291.962-.894 2.138-1.34 1.3-.495 1.903-1.191 1.54-1.779-.328-.53-.247-.749.18-.485 1.185.732 10.506-1.654 11.266-2.884.517-.837.892-.856 1.664-.084 1.112 1.111.784 1.276-8.44 4.235-2.984.958-6.083 1.994-6.887 2.303-.803.308-1.46.323-1.46.033zm17.754-6.419c-.116-1.544.192-1.695 2.536-1.241 6.8 1.315 11.092 1.134 10.127-.428-.254-.41-.265-.747-.025-.747.24 0 .826.725 1.3 1.611.814 1.52.53 1.613-5.032 1.63-3.242.01-6.542.225-7.334.476-1.03.327-1.477-.042-1.572-1.3zm-9.823-.302c3.566-1.113 6.111-1.13 5.427-.036-.23.367-2.296.76-4.592.873l-4.174.206 3.34-1.043z" transform="translate(0 -924.36)"/></svg>